<svg viewBox="0 0 700 470" xmlns="http://www.w3.org/2000/svg" font-family="-apple-system, Helvetica, Arial, sans-serif" role="img" aria-labelledby="ttl dsc">
  <title id="ttl">Claude Code status monitor — menu bar mockup</title>
  <desc id="dsc">A macOS menu bar with a colored-dot indicator (2 red, 1 orange, 1 green), a magnified zoom of the indicator with a legend, and the opened dropdown listing sessions.</desc>
  <defs>
    <clipPath id="screen"><rect x="10" y="10" width="680" height="450" rx="16"/></clipPath>
  </defs>

  <rect x="10" y="10" width="680" height="450" rx="16" fill="#E7EDF3" stroke="#D5DBE3"/>

  <g clip-path="url(#screen)">
    <rect x="10" y="10" width="680" height="32" fill="#FFFFFF" fill-opacity="0.95"/>
    <line x1="10" y1="42" x2="690" y2="42" stroke="#E3E7ED"/>
  </g>

  <rect x="486" y="20" width="26" height="12" rx="3" fill="none" stroke="#8A9099"/>
  <rect x="488" y="22" width="17" height="8" rx="1.5" fill="#6B7280"/>
  <rect x="513" y="23.5" width="2.5" height="5" rx="1" fill="#8A9099"/>
  <text x="556" y="30" text-anchor="end" font-size="13" fill="#3A3F47">Thu 9:41</text>

  <rect x="576" y="15" width="104" height="22" rx="6" fill="#FFFFFF" stroke="#2F6FE0" stroke-width="2"/>
  <circle cx="591" cy="26" r="4.5" fill="#E24B4A"/><text x="599" y="30" font-size="13" fill="#3A3F47">2</text>
  <circle cx="619" cy="26" r="4.5" fill="#EF9F27"/><text x="627" y="30" font-size="13" fill="#3A3F47">1</text>
  <circle cx="647" cy="26" r="4.5" fill="#5DA017"/><text x="655" y="30" font-size="13" fill="#3A3F47">1</text>

  <line x1="586" y1="40" x2="172" y2="198" stroke="#9AA1AB" stroke-width="1.5" stroke-dasharray="4 5"/>

  <line x1="190" y1="290" x2="214" y2="314" stroke="#B8BFC8" stroke-width="7" stroke-linecap="round"/>
  <circle cx="150" cy="250" r="60" fill="#FFFFFF" stroke="#B8BFC8" stroke-width="3"/>
  <circle cx="119" cy="250" r="7.5" fill="#E24B4A"/><text x="131" y="256" font-size="17" fill="#3A3F47">2</text>
  <circle cx="149" cy="250" r="7.5" fill="#EF9F27"/><text x="161" y="256" font-size="17" fill="#3A3F47">1</text>
  <circle cx="179" cy="250" r="7.5" fill="#5DA017"/><text x="191" y="256" font-size="17" fill="#3A3F47">1</text>

  <circle cx="244" cy="216" r="6" fill="#E24B4A"/><text x="258" y="221" font-size="14" fill="#454B54">working</text>
  <circle cx="244" cy="250" r="6" fill="#EF9F27"/><text x="258" y="255" font-size="14" fill="#454B54">waiting for you</text>
  <circle cx="244" cy="284" r="6" fill="#5DA017"/><text x="258" y="289" font-size="14" fill="#454B54">done</text>

  <rect x="430" y="58" width="250" height="182" rx="10" fill="#FFFFFF" stroke="#DCE0E7"/>
  <rect x="437" y="65" width="236" height="40" rx="6" fill="#EEF2F8"/>
  <circle cx="452" cy="80" r="5" fill="#E24B4A"/>
  <text x="465" y="80" font-size="12.5" fill="#2A2F36">Claude process status indicator</text>
  <text x="465" y="96" font-size="11" fill="#8A9099">running · now · ai-newsletter</text>

  <circle cx="452" cy="124" r="5" fill="#EF9F27"/>
  <text x="465" y="124" font-size="12.5" fill="#2A2F36">Helm v1 planning</text>
  <text x="465" y="140" font-size="11" fill="#8A9099">waiting · 1m · helm</text>

  <circle cx="452" cy="166" r="5" fill="#5DA017"/>
  <text x="465" y="166" font-size="12.5" fill="#2A2F36">Core instructions enrichment</text>
  <text x="465" y="182" font-size="11" fill="#8A9099">done · 3m · claude-config</text>

  <line x1="444" y1="204" x2="666" y2="204" stroke="#E9ECF1"/>
  <text x="465" y="224" font-size="11.5" fill="#9AA1AB">Refresh</text>
</svg>
