<svg viewBox="0 0 720 470" xmlns="http://www.w3.org/2000/svg" font-family="-apple-system, Helvetica, Arial, sans-serif" role="img" aria-labelledby="ttl dsc">
  <title id="ttl">Claude Code status monitor</title>
  <desc id="dsc">A macOS menu bar with a colored-dot indicator, the opened dropdown listing sessions by status, and the Claude Code app window focused on the clicked session.</desc>
  <defs>
    <clipPath id="scr"><rect x="10" y="10" width="700" height="450" rx="16"/></clipPath>
    <clipPath id="win"><rect x="40" y="150" width="362" height="252" rx="13"/></clipPath>
    <linearGradient id="wp" x1="0" y1="0" x2="1" y2="1">
      <stop offset="0" stop-color="#3b2f6e"/><stop offset="0.42" stop-color="#5a4cb0"/>
      <stop offset="0.72" stop-color="#8a6fd6"/><stop offset="1" stop-color="#c98fc0"/>
    </linearGradient>
    <marker id="ah" markerWidth="8" markerHeight="8" refX="6" refY="4" orient="auto"><path d="M0 0L7 4L0 8z" fill="#ffffff"/></marker>
  </defs>

  <rect x="10" y="10" width="700" height="450" rx="16" fill="url(#wp)"/>

  <g clip-path="url(#scr)">
    <rect x="10" y="10" width="700" height="32" fill="#FFFFFF" fill-opacity="0.93"/>
    <line x1="10" y1="42" x2="710" y2="42" stroke="#000000" stroke-opacity="0.06"/>
  </g>

  <text x="556" y="30" text-anchor="end" font-size="13" fill="#1d1d1f">Thu 9:41</text>
  <rect x="588" y="14" width="106" height="23" rx="7" fill="#FFFFFF" stroke="#466BE0" stroke-width="2"/>
  <circle cx="605" cy="25" r="4.5" fill="#FF5F56"/><text x="613" y="29" font-size="13" fill="#1d1d1f">1</text>
  <circle cx="633" cy="25" r="4.5" fill="#FEBC2E"/><text x="641" y="29" font-size="13" fill="#1d1d1f">1</text>
  <circle cx="661" cy="25" r="4.5" fill="#28C840"/><text x="669" y="29" font-size="13" fill="#1d1d1f">1</text>

  <path d="M474 88 C 438 112, 416 150, 405 168" fill="none" stroke="#FFFFFF" stroke-opacity="0.9" stroke-width="1.6" stroke-dasharray="4 5" marker-end="url(#ah)"/>

  <rect x="476" y="62" width="228" height="154" rx="11" fill="#000000" fill-opacity="0.14"/>
  <rect x="474" y="58" width="228" height="154" rx="11" fill="#FCFCFD" stroke="#000000" stroke-opacity="0.08"/>
  <rect x="480" y="64" width="216" height="44" rx="7" fill="#ECF0FB"/>
  <circle cx="494" cy="82" r="5" fill="#FEBC2E"/>
  <text x="508" y="80" font-size="12.5" fill="#16181d">Helm v1 planning</text>
  <text x="508" y="96" font-size="11" fill="#86868b">waiting · now · helm</text>
  <circle cx="494" cy="128" r="5" fill="#FF5F56"/>
  <text x="508" y="126" font-size="12" fill="#16181d">Claude process status indicator</text>
  <text x="508" y="142" font-size="11" fill="#86868b">running · now · ai-newsletter</text>
  <circle cx="494" cy="174" r="5" fill="#28C840"/>
  <text x="508" y="172" font-size="12" fill="#16181d">Core instructions enrichment</text>
  <text x="508" y="188" font-size="11" fill="#86868b">done · 2m · claude-config</text>

  <rect x="44" y="156" width="362" height="252" rx="13" fill="#000000" fill-opacity="0.20"/>
  <rect x="40" y="150" width="362" height="252" rx="13" fill="#FFFFFF" stroke="#000000" stroke-opacity="0.08"/>
  <g clip-path="url(#win)">
    <rect x="40" y="150" width="362" height="30" fill="#F1F1F3"/>
    <circle cx="58" cy="165" r="5.5" fill="#FF5F56"/><circle cx="75" cy="165" r="5.5" fill="#FEBC2E"/><circle cx="92" cy="165" r="5.5" fill="#28C840"/>
    <text x="110" y="169" font-size="11" fill="#86868b">Claude Code</text>
    <line x1="40" y1="180" x2="402" y2="180" stroke="#000000" stroke-opacity="0.07"/>

    <rect x="40" y="180" width="126" height="222" fill="#F7F7F8"/>
    <line x1="166" y1="180" x2="166" y2="402" stroke="#000000" stroke-opacity="0.07"/>
    <rect x="50" y="190" width="106" height="22" rx="7" fill="#E9E9EC"/>
    <rect x="121" y="192" width="33" height="18" rx="5" fill="#FFFFFF"/>
    <text x="67" y="205" font-size="10" fill="#6b6b70">Chat</text>
    <text x="95" y="205" font-size="10" fill="#6b6b70">Cowork</text>
    <text x="137" y="205" font-size="10" fill="#1d1d1f" text-anchor="middle">Code</text>
    <text x="54" y="232" font-size="10" fill="#a1a1a6">Recents</text>
    <text x="56" y="252" font-size="11" fill="#48484c">Ai-Newsletter</text>
    <rect x="48" y="260" width="110" height="20" rx="5" fill="#ECF0FB"/>
    <circle cx="58" cy="270" r="3" fill="#FEBC2E"/>
    <text x="68" y="274" font-size="11" fill="#16181d">Helm v1 planning</text>
    <text x="56" y="298" font-size="11" fill="#48484c">Claude RTL</text>
    <text x="56" y="320" font-size="11" fill="#48484c">Knowledge Bank</text>

    <text x="178" y="203" font-size="12.5" fill="#16181d">Helm v1 planning</text>
    <rect x="300" y="193" width="40" height="17" rx="5" fill="#F0F0F2"/>
    <text x="320" y="205" font-size="10" fill="#6b6b70" text-anchor="middle">helm</text>
    <line x1="166" y1="218" x2="402" y2="218" stroke="#000000" stroke-opacity="0.06"/>
    <rect x="296" y="230" width="96" height="24" rx="9" fill="#ECEBF6"/>
    <text x="344" y="246" font-size="10.5" fill="#3a3470" text-anchor="middle">let's plan v1</text>
    <rect x="178" y="268" width="200" height="7" rx="3" fill="#ECECED"/>
    <rect x="178" y="282" width="158" height="7" rx="3" fill="#ECECED"/>
    <rect x="178" y="296" width="186" height="7" rx="3" fill="#ECECED"/>
    <rect x="178" y="364" width="212" height="28" rx="9" fill="#FFFFFF" stroke="#000000" stroke-opacity="0.13"/>
    <text x="190" y="382" font-size="11" fill="#a1a1a6">Type / for commands</text>
  </g>
</svg>
